<svg width="848" height="526" viewBox="0 0 848 526" fill="none" xmlns="http://www.w3.org/2000/svg">
<g clip-path="url(#clip0_12607_11439)">
<rect width="848" height="526" rx="8" fill="#F0EAFF"/>
<g clip-path="url(#clip1_12607_11439)">
<path d="M-7.72404 467.757C66.0624 463.539 115.126 473.438 155.778 480.999C177.338 485.005 202.752 489.152 236.769 490.049C255.95 490.562 275.261 489.691 294.903 488.921C313.235 488.198 331.247 487.828 349.273 488.01C383.769 488.37 414.956 490.76 438.722 494.533C461.666 498.173 478.326 502.796 496.127 507.184C513.599 511.497 533.527 515.764 561.683 518.187C574.736 519.319 589.417 520.039 604.979 519.963C623.899 519.861 642.38 518.526 660.704 517.485C700.461 515.216 743.114 514.19 780.196 516.449C811.289 518.357 836.217 522.724 841.926 528.443C841.928 528.512 842.012 528.579 842.013 528.648L-5.73451 549.325L-7.72404 467.757Z" fill="#E3D8FF"/>
</g>
</g>
<defs>
<clipPath id="clip0_12607_11439">
<rect width="848" height="526" rx="8" fill="white"/>
</clipPath>
<clipPath id="clip1_12607_11439">
<rect width="848" height="110.427" fill="white" transform="translate(-8.42578 438.931) rotate(-1.39723)"/>
</clipPath>
</defs>
</svg>
