<svg width="848" height="430" viewBox="0 0 848 430" fill="none" xmlns="http://www.w3.org/2000/svg">
<g clip-path="url(#clip0_10864_3879)">
<rect width="848" height="430" rx="8" fill="#FEF4CE"/>
<path d="M-32 368.284C41.8673 366.248 90.6755 375.589 131.131 382.79C152.586 386.606 177.891 390.619 211.877 392.073C231.04 392.899 250.366 392.562 270.021 392.318C288.365 392.085 306.381 392.143 324.398 392.667C358.874 393.679 389.994 396.331 413.661 399.995C436.509 403.532 453.051 407.766 470.74 411.826C488.101 415.816 507.919 419.818 536.009 422.435C549.029 423.657 563.688 424.564 579.248 424.82C598.165 425.123 616.673 424.378 635.017 423.878C674.817 422.784 717.483 422.796 754.499 425.46C785.536 427.705 810.349 431.893 815.918 436.826C815.918 436.884 816 436.942 816 437L-32 437V368.284Z" fill="#FFCCA7"/>
<path d="M548.684 390.204C548.815 389.344 549.109 388.532 549.413 387.724C549.931 386.341 550.767 385.239 552.024 384.44C553.598 383.44 555.265 382.674 557.073 382.217C559.03 381.722 559.361 381.993 558.908 383.894C558.222 386.766 557.442 389.615 555.863 392.161C555.443 392.843 555.41 393.473 555.854 394.155C556.26 394.781 556.615 395.435 556.993 396.079C557.745 397.368 557.951 398.751 557.671 400.208C557.512 401.026 557.39 401.124 556.587 401.152C555.321 401.198 554.06 401.119 552.808 400.9C552.103 400.773 551.44 400.517 550.819 400.148C550.039 399.68 549.259 399.223 548.469 398.774C547.797 398.391 547.815 398.424 547.26 399.003C545.471 400.876 543.336 402.156 540.791 402.735C540.076 402.899 539.38 402.875 538.67 402.716C537.844 402.534 537.694 402.375 537.741 401.525C537.834 399.867 538.161 398.251 538.745 396.691C539.147 395.622 539.684 394.622 540.31 393.679C540.875 392.824 540.805 392.109 540.184 391.292C539.067 389.821 538.17 388.2 537.39 386.523C536.853 385.365 536.965 384.188 537.166 382.997C537.241 382.534 537.531 382.362 538.002 382.394C538.932 382.46 539.782 382.791 540.581 383.212C542.626 384.286 544.485 385.64 546.157 387.238C546.891 387.934 547.517 388.714 548.04 389.582C548.18 389.816 548.273 390.124 548.684 390.199V390.204Z" fill="#FBC500"/>
<path d="M174.576 363.108C175.137 362.444 175.813 361.906 176.495 361.376C177.661 360.47 178.95 359.969 180.439 359.947C182.303 359.919 184.125 360.14 185.905 360.697C187.831 361.3 187.972 361.704 186.59 363.086C184.501 365.174 182.344 367.193 179.666 368.534C178.951 368.895 178.593 369.415 178.614 370.229C178.632 370.975 178.592 371.718 178.577 372.465C178.543 373.957 177.994 375.242 176.992 376.337C176.428 376.95 176.274 376.97 175.575 376.573C174.472 375.95 173.439 375.222 172.488 374.379C171.953 373.903 171.522 373.336 171.186 372.697C170.767 371.89 170.342 371.092 169.904 370.297C169.532 369.618 169.531 369.656 168.754 369.858C166.249 370.517 163.76 370.489 161.288 369.65C160.594 369.415 160.013 369.03 159.492 368.523C158.883 367.935 158.839 367.721 159.324 367.022C160.272 365.658 161.396 364.453 162.711 363.429C163.613 362.729 164.594 362.158 165.621 361.682C166.551 361.25 166.865 360.605 166.764 359.583C166.583 357.745 166.668 355.895 166.882 354.058C167.031 352.79 167.743 351.846 168.538 350.936C168.843 350.581 169.181 350.586 169.565 350.861C170.323 351.403 170.873 352.131 171.334 352.907C172.514 354.894 173.388 357.021 173.976 359.258C174.236 360.235 174.361 361.227 174.352 362.241C174.349 362.513 174.267 362.825 174.578 363.104L174.576 363.108Z" fill="#FBC500"/>
<path d="M-11.0994 235.297C-8.87379 236.344 -7.48281 238.142 -6.71776 240.393C-2.64909 252.245 2.32375 263.782 6.21855 275.703C10.6698 289.352 13.5039 303.333 15.3296 317.559C16.5815 327.281 17.2596 337.02 17.1553 346.829C17.1553 347.475 17.1553 348.121 17.1553 349.255C18.4941 348.226 18.6854 347.056 19.0853 346.044C24.1972 332.918 28.9788 319.688 33.3952 306.318C36.5076 296.893 40.5241 287.851 44.8536 278.95C48.4528 271.549 51.8086 263.974 56.5728 257.202C56.9553 256.661 57.2856 256.085 57.7029 255.578C59.007 253.955 60.5545 252.768 62.7975 253.379C65.0753 253.99 66.2228 255.648 66.4662 257.935C66.7444 260.448 66.9531 262.962 67.1444 265.492C68.3093 280.957 68.7614 296.456 68.4658 311.973C68.2745 321.451 67.3878 330.841 65.3187 340.109C65.0926 341.139 64.4493 342.152 65.0579 343.496C66.2402 342.728 66.8661 341.558 67.6486 340.563C76.8466 328.782 86.601 317.489 96.5988 306.405C97.0335 305.917 97.5377 305.48 97.9898 304.991C99.3982 303.49 101.067 302.914 103.05 303.595C105.084 304.293 105.919 305.917 105.988 307.941C106.075 310.908 106.127 313.858 105.64 316.825C104.319 325.046 101.346 332.726 98.2333 340.371C94.6514 349.133 90.8261 357.773 86.827 366.343C84.4449 371.44 81.4891 376.17 78.2376 380.691C78.6897 381.371 79.0722 380.935 79.3678 380.743C92.4606 372.278 106.04 364.633 119.411 356.656C124.506 353.619 129.409 350.285 134.208 346.794C135.634 345.765 137.042 344.7 138.555 343.827C142.363 341.663 145.649 343.356 146.066 347.719C146.588 353.305 145.875 358.733 143.302 363.76C139.685 370.829 135.182 377.287 130.018 383.344C121.376 393.484 110.387 400.501 99.1026 407.081C87.2444 413.993 74.934 419.928 61.8238 424.274C52.678 427.311 43.4973 430.348 34.734 434.415C30.022 436.596 24.9449 437.591 20.0068 439.04C8.75711 442.322 -2.37089 445.987 -13.1859 450.595C-16.1244 451.852 -19.1672 452.672 -22.4361 452.567C-25.4093 452.462 -27.7045 451.363 -29.2346 448.71C-32.5382 443.002 -36.0505 437.417 -39.1802 431.605C-41.0581 428.114 -42.9707 424.64 -45.3702 421.499C-49.4215 416.21 -52.4643 410.275 -54.9855 404.254C-60.7755 390.465 -66.9829 376.868 -72.9468 363.166C-77.2936 353.165 -80.3712 342.71 -81.8144 331.819C-82.336 327.857 -82.1448 323.912 -82.1274 319.95C-82.1274 317.873 -81.0145 316.389 -79.1715 315.551C-77.3284 314.713 -75.6766 315.394 -74.3552 316.703C-60.5669 330.248 -46.6742 343.635 -36.9199 360.723C-31.8949 369.537 -27.3046 378.491 -23.4098 387.829C-22.3491 390.36 -21.1146 392.821 -19.8975 395.457C-19.0976 394.898 -19.5497 394.218 -19.6019 393.694C-20.7321 380.551 -21.4276 367.39 -21.8623 354.195C-22.1231 346.061 -22.0188 337.91 -22.3839 329.794C-22.836 319.915 -23.5489 310.053 -24.1053 300.174C-24.2618 297.312 -24.2791 294.449 -24.3139 291.604C-24.3487 285.774 -24.2096 279.927 -24.4182 274.115C-24.679 266.644 -23.5141 259.436 -21.3407 252.332C-20.2279 248.649 -19.1846 244.931 -18.2283 241.214C-17.6023 238.787 -16.5243 236.693 -14.4204 235.262H-11.1342L-11.0994 235.297Z" fill="#CCBDF4"/>
</g>
<defs>
<clipPath id="clip0_10864_3879">
<rect width="848" height="430" rx="8" fill="white"/>
</clipPath>
</defs>
</svg>
