<svg width="24" height="24" viewBox="0 0 24 24" fill="none" xmlns="http://www.w3.org/2000/svg">
<path d="M9.80692 19.6683C8.39029 19.2695 7.23498 18.4891 6.34099 17.3272C5.447 16.1647 5 14.827 5 13.3141C5 12.5302 5.13066 11.7839 5.39198 11.0753C5.6533 10.3672 6.02465 9.71752 6.50603 9.12611C6.65732 8.96107 6.843 8.87497 7.06305 8.86782C7.28311 8.86121 7.48254 8.94731 7.66134 9.12611C7.81263 9.2774 7.89185 9.46308 7.899 9.68313C7.90561 9.90319 7.83326 10.1095 7.68197 10.3021C7.35188 10.7284 7.09744 11.196 6.91864 11.7049C6.73984 12.2138 6.65044 12.7502 6.65044 13.3141C6.65044 14.4282 6.97723 15.422 7.63081 16.2956C8.28383 17.1687 9.12611 17.7634 10.1576 18.0798C10.3364 18.1348 10.4844 18.2379 10.6016 18.3892C10.7182 18.5405 10.7766 18.7056 10.7766 18.8844C10.7766 19.1594 10.6803 19.3762 10.4877 19.5346C10.2952 19.6925 10.0682 19.7371 9.80692 19.6683ZM13.3966 19.6683C13.1353 19.7371 12.9084 19.689 12.7158 19.5239C12.5233 19.3589 12.427 19.1388 12.427 18.8637C12.427 18.6987 12.4856 18.5405 12.6028 18.3892C12.7194 18.2379 12.8671 18.1348 13.0459 18.0798C14.0774 17.7497 14.9197 17.1514 15.5727 16.2849C16.2263 15.4184 16.5531 14.4282 16.5531 13.3141C16.5531 11.9387 16.0717 10.7697 15.109 9.80692C14.1462 8.84416 12.9771 8.36278 11.6018 8.36278L11.5399 8.36278L11.87 8.69287C12.0213 8.84416 12.0969 9.03671 12.0969 9.27052C12.0969 9.50434 12.0213 9.69689 11.87 9.84818C11.7187 9.99947 11.5261 10.0751 11.2923 10.0751C11.0585 10.0751 10.866 9.99947 10.7147 9.84818L8.9817 8.11521C8.89917 8.03269 8.84086 7.94329 8.80675 7.84702C8.77209 7.75074 8.75476 7.64759 8.75476 7.53756C8.75476 7.42753 8.77209 7.32438 8.80675 7.2281C8.84086 7.13182 8.89917 7.04242 8.9817 6.9599L10.7147 5.22694C10.866 5.07565 11.0585 5 11.2923 5C11.5261 5 11.7187 5.07565 11.87 5.22694C12.0213 5.37823 12.0969 5.57078 12.0969 5.80459C12.0969 6.0384 12.0213 6.23096 11.87 6.38225L11.5399 6.71234L11.6018 6.71234C13.4448 6.71234 15.0058 7.35188 16.2849 8.63098C17.564 9.91007 18.2036 11.4711 18.2036 13.3141C18.2036 14.8133 17.7566 16.1474 16.8626 17.3164C15.9686 18.4855 14.8133 19.2695 13.3966 19.6683Z" fill="white"/>
</svg>
