<?xml version="1.0" encoding="UTF-8"?>
<svg width="18px" height="20px" viewBox="0 0 20 23" version="1.1" xmlns="http://www.w3.org/2000/svg" xmlns:xlink="http://www.w3.org/1999/xlink">
    <title>Shape</title>
    <g id="Frontend" stroke="none" stroke-width="1" fill="none" fill-rule="evenodd">
        <g id="Backend" transform="translate(-613.000000, -995.000000)" fill="#4989BE" fill-rule="nonzero">
            <g id="copy-(1)" transform="translate(613.000000, 995.000000)">
                <path d="M16.659623,0 L6.99681629,0 C5.59322385,0 4.45125876,1.14196508 4.45125876,2.54555752 L4.45125876,2.8579778 L2.76764843,2.8579778 C1.36405599,2.8579778 0.222090908,3.99994289 0.222090908,5.40353532 L0.222090908,20.4544425 C0.222090908,21.8580349 1.36405599,23 2.76764843,23 L12.4304552,23 C13.8340476,23 14.9759032,21.8580349 14.9759032,20.4544425 L14.9759032,20.1420222 L16.6595136,20.1420222 C18.063106,20.1420222 19.2050711,19.0000571 19.2050711,17.5964647 L19.2050711,2.54555752 C19.2050711,1.14196508 18.0632155,0 16.659623,0 Z M13.334,20.4544425 C13.334,20.9526291 12.9286418,21.3579873 12.4305646,21.3579873 L2.76764843,21.3579873 C2.26946178,21.3579873 1.86410359,20.9526291 1.86410359,20.4544425 L1.86410359,5.40342586 C1.86410359,4.90523921 2.26946178,4.49988101 2.76764843,4.49988101 L12.4304552,4.49988101 C12.9286418,4.49988101 13.334,4.90523921 13.334,5.40342586 L13.334,20.4544425 L13.334,20.4544425 Z M17.5631679,17.5964647 C17.5631679,18.0946513 17.1578097,18.5000095 16.659623,18.5000095 L14.9760127,18.5000095 L14.9760127,5.40342586 C14.9760127,3.99983342 13.8340476,2.85786833 12.4305646,2.85786833 L6.09327144,2.85786833 L6.09327144,2.54544806 C6.09327144,2.04726141 6.49862964,1.64190321 6.99681629,1.64190321 L16.659623,1.64190321 C17.1578097,1.64190321 17.5631679,2.04726141 17.5631679,2.54544806 L17.5631679,17.5964647 Z" id="Shape"></path>
            </g>
        </g>
    </g>
</svg>