<svg width="293" height="56" viewBox="0 0 293 56" fill="none" xmlns="http://www.w3.org/2000/svg">
<path d="M27.0019 37.1281L35.6196 34.8289L39.0666 45.75L27.0019 37.1281ZM46.5352 23.3329H31.598L27.0019 9.53772L22.4058 23.3329H8.04309L20.1078 31.9549L15.5117 45.75L27.5764 37.1281L35.045 31.9549L46.5352 23.3329Z" fill="#FFCE00"/>
<path d="M86.751 37.1281L95.3687 34.8289L98.8157 45.75L86.751 37.1281ZM105.71 23.3329H90.7726L86.1765 9.53772L81.5804 23.3329H66.6432L78.7079 31.9549L74.1118 45.75L86.1765 37.1281L93.6451 31.9549L105.71 23.3329Z" fill="#FFCE00"/>
<path d="M146.5 37.1281L155.118 34.8289L158.565 45.75L146.5 37.1281ZM165.459 23.3329H150.521L145.925 9.53772L141.329 23.3329H126.392L138.457 31.9549L134.435 45.75L146.5 37.1281L153.969 31.9549L165.459 23.3329Z" fill="#FFCE00"/>
<path d="M205.674 37.1281L214.292 34.8289L217.739 45.75L205.674 37.1281ZM225.208 23.3329H210.271L205.674 9.53772L201.078 23.3329H186.141L198.206 31.9549L193.61 45.75L205.674 37.1281L213.143 31.9549L225.208 23.3329Z" fill="#FFCE00"/>
<path d="M265.423 37.1281L274.041 34.8289L277.488 45.75L265.423 37.1281ZM284.382 23.3329H269.445L264.849 9.53772L260.827 23.3329H245.89L257.955 31.9549L253.359 45.75L265.423 37.1281L272.892 31.9549L284.382 23.3329Z" fill="#FFCE00"/>
</svg>
