<svg width="36" height="36" viewBox="0 0 36 36" fill="none" xmlns="http://www.w3.org/2000/svg">
<path d="M1.125 6.35762H18.2535C18.7697 8.70511 20.8681 10.4675 23.3707 10.4675C25.8732 10.4675 27.9716 8.70518 28.4879 6.35762H34.875C35.4963 6.35762 36 5.85438 36 5.2337C36 4.61302 35.4963 4.10979 34.875 4.10979H28.4873C27.9701 1.76349 25.8688 0 23.3707 0C20.8712 0 18.7709 1.76321 18.2539 4.10979H1.125C0.503719 4.10979 0 4.61302 0 5.2337C0 5.85438 0.503719 6.35762 1.125 6.35762ZM20.382 5.23665L20.382 5.22457C20.387 3.58317 21.7276 2.24789 23.3707 2.24789C25.0114 2.24789 26.3521 3.58134 26.3592 5.22197L26.3595 5.23848C26.3569 6.88269 25.0171 8.21972 23.3707 8.21972C21.7249 8.21972 20.3856 6.88403 20.3819 5.2408L20.382 5.23665ZM34.875 29.6423H28.4873C27.97 27.2961 25.8688 25.5325 23.3707 25.5325C20.8712 25.5325 18.7709 27.2958 18.2539 29.6423H1.125C0.503719 29.6423 0 30.1455 0 30.7662C0 31.387 0.503719 31.8901 1.125 31.8901H18.2535C18.7697 34.2376 20.8681 36 23.3707 36C25.8732 36 27.9716 34.2376 28.4879 31.8901H34.875C35.4963 31.8901 36 31.387 36 30.7662C36 30.1455 35.4963 29.6423 34.875 29.6423ZM23.3707 33.7522C21.7249 33.7522 20.3856 32.4165 20.3819 30.7733L20.382 30.7692L20.382 30.7571C20.387 29.1157 21.7276 27.7803 23.3707 27.7803C25.0114 27.7803 26.3521 29.1138 26.3592 30.7544L26.3595 30.7709C26.3571 32.4153 25.0173 33.7522 23.3707 33.7522ZM34.875 16.8761H17.7465C17.2303 14.5286 15.1319 12.7663 12.6293 12.7663C10.1268 12.7663 8.02835 14.5286 7.51212 16.8761H1.125C0.503719 16.8761 0 17.3793 0 18C0 18.6208 0.503719 19.1239 1.125 19.1239H7.51268C8.02997 21.4701 10.1312 23.2337 12.6293 23.2337C15.1288 23.2337 17.2291 21.4704 17.7461 19.1239H34.875C35.4963 19.1239 36 18.6208 36 18C36 17.3793 35.4963 16.8761 34.875 16.8761ZM15.618 17.9971L15.618 18.0091C15.613 19.6505 14.2724 20.9858 12.6293 20.9858C10.9886 20.9858 9.64786 19.6524 9.64076 18.0118L9.64055 17.9954C9.64301 16.3509 10.9828 15.0141 12.6293 15.0141C14.2751 15.0141 15.6144 16.3497 15.6181 17.993L15.618 17.9971Z" fill="#666666"/>
</svg>
