<svg width="24" height="24" viewBox="0 0 24 24" fill="none" xmlns="http://www.w3.org/2000/svg">
<path d="M10.7542 0.0872374C8.02073 0.352068 5.13595 1.78972 3.25375 3.80432C1.10672 6.10267 0.000102761 8.90231 0.000102761 12.0424C-0.00935552 14.5489 0.633808 16.6391 2.05255 18.7672C3.81179 21.3966 6.64928 23.2504 9.88401 23.8652C10.8298 24.0449 12.8539 24.0449 13.9794 23.8652C18.5194 23.1275 22.3027 19.7414 23.5512 15.2677C24.7524 10.9831 23.5039 6.46208 20.2692 3.36924C18.3397 1.52489 15.7576 0.333151 13.2512 0.12507C11.804 0.0115716 11.577 0.0115716 10.7542 0.0872374ZM13.743 3.86107C16.5616 4.48531 18.737 6.33913 19.8057 9.0158C20.4016 10.5102 20.5435 12.0046 20.2408 13.5841C20.0611 14.4921 19.3801 15.0029 18.4816 14.8988C17.9898 14.8421 17.6303 14.6151 17.375 14.1705C17.2236 13.9152 17.1953 13.7165 17.2236 13.1396C17.2993 11.5033 17.1669 10.548 16.7413 9.70625C16.4008 9.02526 15.559 8.06052 14.9536 7.66328C14.0362 7.04849 13.4592 6.86879 12.2297 6.81204C11.246 6.7742 11.0947 6.79312 10.3569 7.02958C8.1626 7.7484 6.72494 9.70625 6.72494 11.9951C6.72494 13.5558 7.19786 14.6718 8.32339 15.7784C9.55297 16.9796 10.4704 17.3107 12.5418 17.2728C14.0362 17.2539 14.1497 17.2918 14.5753 17.8782C15.0671 18.5592 14.8969 19.5428 14.2159 19.9968C13.5633 20.4319 11.4068 20.5265 9.98805 20.186C7.68023 19.6185 5.55211 17.9349 4.5117 15.8257C3.83071 14.4543 3.651 13.6314 3.66046 11.9479C3.66046 10.6899 3.68883 10.4345 3.91583 9.6968C5.02245 6.09321 8.20043 3.70028 11.927 3.68136C12.5796 3.68136 13.2039 3.73811 13.743 3.86107ZM15.1334 13.272C15.3793 13.3288 15.7765 13.6503 16.7791 14.634C18.6802 16.4973 19.2193 17.1215 19.3045 17.5944C19.4085 18.1146 19.2761 18.4929 18.8599 18.9186C18.2924 19.505 17.5925 19.5712 16.9399 19.1172C16.8075 19.0226 15.9278 18.1619 14.9915 17.1972C13.62 15.7974 13.2512 15.3717 13.166 15.0691C13.0336 14.5962 13.166 14.076 13.516 13.6882C13.7808 13.395 14.4145 13.1112 14.6699 13.1774C14.7456 13.1963 14.9536 13.2436 15.1334 13.272Z" fill="#F0F6FC" fill-opacity="0.6"/>
</svg>
