<svg version="1.2" xmlns="http://www.w3.org/2000/svg" xmlns:xlink="http://www.w3.org/1999/xlink" overflow="visible" preserveAspectRatio="none" viewBox="0 0 24 24" width="24" height="24"><g><path xmlns:default="http://www.w3.org/2000/svg" id="unlock-alt" d="M17,12H9.33V8.67C9.33,7.2,10.53,6,12,6s2.67,1.2,2.67,2.67c0.01,0.37,0.3,0.66,0.67,0.67H16  c0.37-0.01,0.66-0.3,0.67-0.67c0.02-1.24-0.48-2.44-1.37-3.3C14.44,4.48,13.24,3.98,12,4c-1.24-0.02-2.44,0.48-3.3,1.37  c-0.89,0.86-1.39,2.06-1.37,3.3V12H7c-0.55,0-1,0.45-1,1v6c0,0.55,0.45,1,1,1h10c0.55,0,1-0.45,1-1v-6C18,12.45,17.55,12,17,12  L17,12z" style="fill: rgb(255, 85, 0);" vector-effect="non-scaling-stroke"/></g></svg>