<svg version="1.1" width="24px" height="24px" viewBox="0 0 24 24" xmlns="http://www.w3.org/2000/svg"><g fill="none" fill-rule="evenodd" stroke-width="1"><g transform="translate(-844 -484)" fill="#222"><g transform="translate(844 484)"><g><path d="m16.882 9.0065c-1.232-1.7988-1.8825-8.0065-1.8825-8.0065s-0.64929 6.2077-1.8813 8.0065c-1.232 1.7988-3.8326 2.4351-7.1181 2.8573 3.2855 0.42339 5.886 1.0596 7.1181 2.8573 1.232 1.8 1.8813 9.279 1.8813 9.279s0.65044-7.479 1.8825-9.279c1.232-1.7976 3.8326-2.4339 7.1181-2.8573-3.2855-0.4222-5.886-1.0585-7.1181-2.8573"></path><path d="m3.8922 9.0244c0.23823-1.8127 1.5067-3.2255 3.1078-3.4608-0.30691-0.043885-0.62134-0.10727-0.92074-0.17798-1.056-0.2499-1.8737-1.2032-2.0765-2.4063l-0.50222-2.9793-0.50759 2.9793c-0.14702 0.97156-0.79841 2.1247-1.6483 2.3234-0.42496 0.099959-0.89713 0.19626-1.3446 0.26087 0.5591 0.080455 1.1729 0.31938 1.6859 0.56319 0.71256 0.33889 1.2116 1.0788 1.321 1.9492l0.49364 3.924 0.39169-2.9756z"></path><path d="m7.5072 15.732l-0.52741-2.7317-0.53078 2.7317c-0.15294 0.89021-0.83778 1.9482-1.7284 2.1291-0.44419 0.092256-1.2516 0.18212-1.7206 0.23963 0.58589 0.071888 1.5406 0.29234 2.0793 0.51519 0.7467 0.31151 1.2696 0.98965 1.3832 1.7864l0.51729 3.598 0.41046-2.7281c0.24965-1.6618 1.58-2.957 3.2578-3.1714h0.35198c-0.32162-0.040736-1.0031-0.098246-1.3168-0.16295-1.1077-0.23124-1.9646-1.1023-2.176-2.2058"></path></g></g></g></g></svg>