<svg viewBox="0 0 750 88" width="750px" height="88px" xmlns="http://www.w3.org/2000/svg"><g fill="none" fill-rule="evenodd" stroke-width="1"><g fill="#000"><g transform="translate(0)"><path d="m13.465 59.448c2.7103 2.5955 5.81 4.7545 9.1876 6.3968 3.862 1.945 8.1367 2.9363 12.464 2.8883 1.1399-0.0046756 2.277-0.10929 3.3981-0.31326 1.1001-0.18235 2.1632-0.54061 3.1477-1.0619 0.90187-0.48392 1.6771-1.1712 2.2641-2.0064 0.62333-0.97077 0.9306-2.1093 0.879-3.26 0-2.173-1.1118-3.9707-3.3342-5.3933-2.223-1.4231-5.474-2.8387-9.7528-4.2472l-4.6554-1.5079c-2.7044-0.87725-5.335-1.9672-7.867-3.2595-2.5737-1.2905-4.9644-2.9146-7.1106-4.831-2.0981-1.8807-3.8268-4.1344-5.0969-6.6463-1.3557-2.7937-2.0242-5.869-1.9497-8.9713-0.036356-3.6844 0.68901-7.3366 2.1309-10.729 1.4243-3.301 3.5506-6.2553 6.2316-8.658 2.9425-2.592 6.387-4.5558 10.12-5.7708 4.5105-1.4535 9.2315-2.1531 13.971-2.0701 3.7582-0.033898 7.5093 0.34541 11.185 1.1303 3.0158 0.6464 5.9653 1.571 8.8099 2.7609 2.2564 0.94447 4.4079 2.1227 6.418 3.5143 1.4525 0.99239 2.8012 2.1268 4.0267 3.3869l-11.329 14.301c-2.8487-2.1139-5.9313-3.8953-9.1881-5.3085-3.0926-1.3594-6.4356-2.0648-9.8162-2.0707-1.1007 0.0017533-2.1984 0.12799-3.2703 0.37697-1.0356 0.23086-2.0318 0.61133-2.956 1.1309-0.84968 0.47749-1.5786 1.142-2.1309 1.9433-0.56938 0.87492-0.85554 1.9035-0.81977 2.9462-0.028733 1.1572 0.30023 2.2951 0.94233 3.2595 0.67963 0.96843 1.5586 1.7808 2.5784 2.384 1.2519 0.74575 2.5801 1.3559 3.9628 1.8206 1.5516 0.5447 3.2081 1.1093 4.9691 1.6931l4.0267 1.2531c2.8411 0.91992 5.7367 1.9819 8.6874 3.1852 2.8944 1.1882 5.5736 2.8416 7.9309 4.8947 2.4236 2.1309 4.3985 4.7206 5.8105 7.6183 1.5094 3.0537 2.2641 6.7965 2.2641 11.228 0.029319 3.727-0.90245 7.3991-2.7062 10.665-1.8196 3.2776-4.307 6.1402-7.3023 8.4038-3.2562 2.4401-6.9206 4.2875-10.823 5.4564-4.3012 1.3179-8.7783 1.9725-13.278 1.9439-8.3907 0-15.418-1.1081-21.081-3.3237-5.3432-2.0111-10.237-5.0508-14.402-8.9455l13.465-16.207z"></path><path d="m131.43 40.647c3.0196 0 5.4094-0.96491 7.1697-2.8947 1.7603-1.9298 2.647-4.4027 2.6616-7.4187 0-3.1923-0.83915-5.749-2.518-7.6677-1.6783-1.9193-4.1588-2.8789-7.441-2.8789h-10.438v20.86h10.566zm-32.325-38.469h34.215c4.1524-0.052141 8.2854 0.56418 12.242 1.8255 3.4515 1.1049 6.6411 2.9029 9.373 5.2844 2.6552 2.3885 4.7208 5.3594 6.0364 8.6789 1.4855 3.8268 2.2086 7.9067 2.1289 12.011 0.054498 3.9862-0.695 7.9425-2.2034 11.633-1.383 3.3564-3.4375 6.3946-6.0364 8.9291-2.6253 2.5151-5.7545 4.4432-9.1814 5.6576-3.7762 1.3352-7.758 1.9943-11.763 1.9474h-13.051v27.916h-21.76v-83.883z" fill-rule="nonzero"></path><path d="m227.89 67.101c3.0206 0.058433 6.0154-0.56212 8.7623-1.8149 2.4949-1.1628 4.705-2.8521 6.4784-4.9522 1.811-2.1819 3.1783-4.6951 4.0245-7.3988 1.8414-5.8754 1.8414-12.171 0-18.046-0.84746-2.7031-2.2142-5.2163-4.0245-7.3988-1.7723-2.1065-3.9829-3.8034-6.4784-4.9732-5.5753-2.4255-11.912-2.4255-17.487 0-2.4943 1.1646-4.705 2.8562-6.4784 4.9574-1.8121 2.1813-3.1788 4.6945-4.0251 7.3988-1.8408 5.8748-1.8408 12.17 0 18.045 0.84628 2.7037 2.213 5.2175 4.0251 7.3993 1.7723 2.1001 3.9835 3.79 6.4784 4.9516 2.7334 1.2557 5.7153 1.8833 8.7248 1.8365v-0.005259zm0 20.821c-5.9715 0.061354-11.895-1.0682-17.423-3.3225-5.1738-2.1129-9.8776-5.2245-13.841-9.1558-3.9566-3.974-7.0592-8.7112-9.1187-13.922-4.3621-11.346-4.3621-23.901 0-35.247 4.1283-10.51 12.441-18.842 22.96-23.014 5.5378-2.214 11.458-3.3213 17.423-3.2588 5.9861-0.058433 11.927 1.0489 17.487 3.2588 5.1885 2.0557 9.8993 5.1503 13.841 9.0921 3.9196 3.9904 6.9971 8.724 9.0495 13.922 4.3609 11.346 4.3609 23.9 0 35.247-4.0978 10.52-12.385 18.876-22.891 23.077-5.5507 2.2502-11.495 3.3792-17.487 3.3225z" fill-rule="nonzero"></path><polygon points="313.53 21.668 287.7 21.668 287.7 2.1748 361.64 2.1748 361.64 21.668 336.06 21.668 336.06 86.06 313.51 86.06 313.51 21.668"></polygon><polygon points="387.43 2.1748 409.72 2.1748 409.72 66.443 448.63 66.443 448.63 86.06 387.43 86.06"></polygon><polygon points="585.35 21.668 559.55 21.668 559.55 2.1748 633.49 2.1748 633.49 21.668 607.91 21.668 607.91 86.06 585.36 86.06 585.36 21.668"></polygon><polygon points="652.44 2.1748 712.87 2.1748 712.87 21.422 674.73 21.422 674.73 34.378 706.07 34.378 706.07 52.474 674.73 52.474 674.73 66.814 715.51 66.814 715.51 86.06 652.44 86.06"></polygon><polygon points="474.35 86.06 491.5 52.603 491.5 52.609 461.68 2.1748 487.22 2.1748 503.58 32.104 518.92 2.1748 543.7 2.1748 499.42 86.06"></polygon><path d="m736.42 86.06v-7.6727h-2.8879v-1.0266h6.9477v1.0266h-2.8999v7.6727h-1.1599zm5.2138 0v-8.6993h1.7459l2.0747 6.1595c0.19133 0.57362 0.33084 1.0028 0.41854 1.2877 0.099653-0.31648 0.25511-0.78131 0.46637-1.3945l2.0987-6.0527h1.5605v8.6993h-1.1181v-7.281l-2.5471 7.281h-1.0463l-2.5351-7.4056v7.4056h-1.1181z" fill-rule="nonzero"></path></g></g></g></svg>