<?xml version="1.0" encoding="UTF-8"?>
<svg xmlns="http://www.w3.org/2000/svg" viewBox="0 0 136 26" width="135px" height="26">
  <g fill="none" fill-rule="evenodd" stroke-width="1">
    <g transform="translate(-42 -17)">
      <g>
        <g transform="translate(42 17)">
          <path d="m69.299 20.919h1.8167c0.2787 0 0.51986 0.034741 0.72348 0.10415 0.20362 0.064498 0.37243 0.15377 0.50644 0.26781s0.23312 0.24795 0.29743 0.40172c0.069696 0.15377 0.1045 0.31743 0.1045 0.49099 0 0.15868-0.032155 0.30255-0.096464 0.43147-0.058924 0.12892-0.134 0.23805-0.22508 0.32732-0.085773 0.08927-0.18224 0.16121-0.28939 0.21574-0.10185 0.054529-0.19558 0.086816-0.28135 0.09671 0.11254 0.014878 0.23578 0.04709 0.36978 0.09671 0.13931 0.044635 0.26793 0.11404 0.38586 0.2083 0.11793 0.094255 0.21704 0.21819 0.29743 0.37196 0.080387 0.14878 0.12058 0.33476 0.12058 0.55794 0 0.26781-0.053618 0.49099-0.16077 0.66953-0.10185 0.17356-0.24381 0.3149-0.42605 0.42403-0.17685 0.10913-0.38851 0.18598-0.63506 0.23062-0.24655 0.044635-0.50909 0.066953-0.78779 0.066953h-1.7203v-4.9619zm1.7042 2.0681c0.11793 0 0.23578-0.012424 0.3537-0.037196 0.11793-0.029757 0.22508-0.074392 0.32155-0.13391s0.1742-0.13636 0.23312-0.23062c0.058924-0.094255 0.088426-0.2083 0.088426-0.3422 0-0.14878-0.029502-0.26781-0.088426-0.35708-0.058924-0.094255-0.13666-0.16612-0.23312-0.21574-0.096464-0.054529-0.20362-0.08927-0.32155-0.10415-0.11793-0.019863-0.23578-0.029757-0.3537-0.029757h-0.9566v1.4506h0.9566zm-0.024116 2.2764c0.13931 0 0.28401-0.0074392 0.43409-0.022318s0.28674-0.049619 0.40997-0.10415c0.12862-0.054529 0.23312-0.13391 0.31351-0.23805 0.080387-0.10913 0.12058-0.25792 0.12058-0.44635 0-0.17854-0.040194-0.32234-0.12058-0.43147-0.075001-0.10913-0.1742-0.19587-0.29743-0.26037-0.11793-0.064498-0.2492-0.1066-0.3939-0.12647-0.1447-0.024773-0.28401-0.037196-0.41801-0.037196h-0.98072v1.6664h0.93249zm5.1983-1.5994l-1.8489-2.7451h0.86014l1.3987 2.1202 1.3987-2.1202h0.82799l-1.8569 2.7451v2.2169h-0.77975v-2.2169zm8.6462-2.7451h0.78779l2.0981 4.9619h-0.86014l-0.55467-1.3837h-2.2026l-0.55467 1.3837h-0.81191l2.0981-4.9619zm1.238 2.9757l-0.86818-2.1797-0.87622 2.1797h1.7444zm3.492-2.9757h0.77172v4.3296h2.7894v0.63233h-3.5611v-4.9619zm5.5523 0h0.77172v4.3296h2.7894v0.63233h-3.5611v-4.9619zm5.5531 0h3.3763v0.63233h-2.6045v1.4432h1.9614v0.63977h-1.9614v1.6069h2.7975v0.63977h-3.5692v-4.9619zm5.6858 0h1.7122c0.34245 0 0.63184 0.044635 0.86818 0.13391 0.23553 0.084286 0.42605 0.19587 0.57075 0.33476 0.14952 0.13391 0.25724 0.28767 0.32155 0.46123 0.069133 0.17356 0.1045 0.34964 0.1045 0.52818 0 0.31743-0.080387 0.59759-0.24116 0.84063-0.16077 0.24304-0.40997 0.42403-0.7476 0.54306l1.254 2.1202h-0.86818l-1.1495-2.0309h-1.0772v2.0309h-0.7476v-4.9619zm1.7766 2.3285c0.33763 0 0.58924-0.076847 0.75564-0.23062 0.17122-0.15377 0.25724-0.35954 0.25724-0.61745 0-0.2728-0.091641-0.48355-0.27332-0.63233-0.18248-0.15377-0.43409-0.23062-0.75564-0.23062h-1.0129v1.711h1.029zm6.8546 0.11159h1.8811v1.9788c-0.10209 0.084286-0.22026 0.16612-0.3537 0.24549-0.12862 0.079376-0.28136 0.15124-0.45821 0.21574-0.17203 0.059514-0.36496 0.1066-0.57879 0.14134-0.21463 0.039651-0.4558 0.059514-0.72348 0.059514-0.41801 0-0.79583-0.064498-1.1335-0.19342-0.3328-0.13391-0.61898-0.3149-0.86014-0.54306-0.23634-0.23307-0.41801-0.50587-0.54663-0.81831-0.1238-0.31743-0.18489-0.66209-0.18489-1.034 0-0.36207 0.06431-0.70174 0.19293-1.0192 0.13344-0.31743 0.31833-0.59268 0.55467-0.82575 0.23553-0.23805 0.51689-0.42403 0.84406-0.55794 0.332-0.13889 0.69937-0.2083 1.1013-0.2083 0.28377 0 0.53859 0.032212 0.76368 0.09671 0.22508 0.059514 0.42042 0.13889 0.58682 0.23805 0.17122 0.094255 0.31592 0.1984 0.43409 0.31245 0.11736 0.11404 0.21704 0.22318 0.29743 0.32732l-0.54663 0.43147c-0.064309-0.084286-0.14228-0.1711-0.23312-0.26037-0.091641-0.094255-0.19856-0.17854-0.32155-0.25293-0.1238-0.074392-0.26528-0.13636-0.42605-0.18598-0.15595-0.04962-0.33521-0.074392-0.53859-0.074392-0.29502 0-0.5603 0.052074-0.79583 0.15622-0.23634 0.10415-0.4373 0.24549-0.6029 0.42403-0.16077 0.17854-0.28698 0.38929-0.37782 0.63233-0.086014 0.23805-0.12862 0.49099-0.12862 0.7588 0 0.28767 0.048232 0.5505 0.1447 0.78856 0.096464 0.23805 0.22991 0.4439 0.40194 0.61745 0.17685 0.16865 0.38264 0.30255 0.61898 0.40172 0.23553 0.094255 0.49518 0.14134 0.77975 0.14134 0.31029 0 0.57316-0.032212 0.78779-0.09671 0.21946-0.064498 0.40676-0.15377 0.56271-0.26781v-1.0117h-1.1415v-0.61745zm5.7678-2.4401h0.78779l2.0981 4.9619h-0.86014l-0.55467-1.3837h-2.2026l-0.55467 1.3837h-0.81191l2.0981-4.9619zm1.238 2.9757l-0.86818-2.1797-0.87622 2.1797h1.7444zm3.4928-2.9757h0.77975l2.9261 3.8758v-3.8758h0.75564v4.9619h-0.77172l-2.9341-3.8833v3.8833h-0.75564v-4.9619z" fill="#222" fill-rule="nonzero"></path>
          <path d="m2.5139 10.547c0.50602 0.46057 1.0847 0.84361 1.7154 1.135 0.72104 0.34513 1.5192 0.52098 2.327 0.51247 0.21284-8.597e-4 0.42512-0.019383 0.63445-0.055569 0.20539-0.032356 0.40388-0.095897 0.5877-0.18843 0.16838-0.085893 0.31311-0.20782 0.42271-0.356 0.11636-0.17225 0.17371-0.37421 0.16414-0.57843 0-0.38554-0.20761-0.70449-0.62254-0.95686-0.41505-0.25252-1.022-0.50363-1.8209-0.75358l-0.86918-0.26753c-0.50493-0.15561-0.99607-0.34904-1.4688-0.57827-0.48052-0.229-0.92688-0.51716-1.3276-0.85718-0.39173-0.33369-0.71448-0.73354-0.95161-1.1792-0.25313-0.49566-0.37794-1.0413-0.36403-1.5917-0.0067912-0.65369 0.12864-1.3017 0.39786-1.9036 0.26594-0.58567 0.66292-1.1098 1.1635-1.5361 0.54938-0.45989 1.1925-0.80831 1.8894-1.0239 0.84214-0.25789 1.7236-0.38201 2.6085-0.36729 0.70168-0.0060143 1.402 0.061284 2.0882 0.20055 0.5631 0.11469 1.1138 0.27873 1.6449 0.48986 0.42125 0.16757 0.82295 0.37662 1.1983 0.62352 0.27115 0.17608 0.52299 0.37735 0.75182 0.60091l-2.1152 2.5374c-0.53182-0.37506-1.1074-0.69113-1.7155-0.94186-0.57746-0.2412-1.2016-0.36635-1.8327-0.36739-0.2055 3.1262e-4 -0.41045 0.022712-0.61059 0.066886-0.19335 0.040961-0.37936 0.10846-0.5519 0.20065-0.15864 0.084721-0.29473 0.20262-0.39786 0.34478-0.10631 0.15523-0.15974 0.33774-0.15306 0.52273-0.0053636 0.20532 0.056062 0.40721 0.17594 0.57831 0.12689 0.17182 0.29101 0.31596 0.48139 0.42297 0.23375 0.13232 0.48173 0.24058 0.73988 0.32302 0.28969 0.096639 0.59898 0.19681 0.92776 0.30041l0.75182 0.22232c0.53042 0.16321 1.0711 0.35163 1.622 0.56513 0.54041 0.21082 1.0406 0.50417 1.4808 0.86845 0.45252 0.37811 0.82121 0.83759 1.0849 1.3517 0.2818 0.54177 0.42274 1.2059 0.42274 1.9921 0.0054462 0.6612-0.1685 1.3128-0.50525 1.8922-0.33972 0.58148-0.80421 1.0894-1.3634 1.491-0.60791 0.43298-1.2921 0.76077-2.0207 0.96811-0.80306 0.23384-1.639 0.34998-2.4791 0.3449-1.5666 0-2.8786-0.19656-3.936-0.58968-0.99761-0.35686-1.9112-0.89613-2.689-1.5872l2.5139-2.8755z" fill="#000"></path>
          <path d="m23.879 7.6238c0.53132 0 0.95182-0.16947 1.2615-0.50842 0.30976-0.33894 0.46573-0.77328 0.46837-1.303 0-0.56069-0.14765-1.0097-0.44311-1.3467-0.29523-0.33709-0.73174-0.50564-1.3092-0.50564h-1.8366v3.6638h1.859zm-5.6877-6.7566h6.0202c0.73065-0.0091576 1.4578 0.09909 2.154 0.32063 0.60732 0.19406 1.1685 0.50986 1.6492 0.92814 0.46713 0.41952 0.83059 0.94131 1.0621 1.5243 0.26135 0.67213 0.38864 1.3887 0.37457 2.1095 0.0096363 0.70011-0.12224 1.395-0.38771 2.0431-0.24332 0.58954-0.60476 1.1231-1.0621 1.5683-0.46192 0.44175-1.0125 0.78035-1.6155 0.9937-0.66444 0.23445-1.365 0.35024-2.0698 0.34202h-2.2964v4.9031h-3.8286v-14.733z" fill="#000"></path>
          <path d="m41.58 11.905c0.53954 0.010314 1.0744-0.099784 1.565-0.32201 0.44558-0.20637 0.84035-0.50603 1.157-0.87868 0.32346-0.3871 0.5677-0.83305 0.71878-1.3127 0.3289-1.0424 0.3289-2.1594 0-3.2017-0.15131-0.4796-0.3954-0.9255-0.71878-1.3127-0.31651-0.37374-0.71129-0.67481-1.157-0.88237-0.99577-0.43035-2.1275-0.43035-3.1232 0-0.4455 0.20662-0.84035 0.50676-1.1571 0.87957-0.32361 0.38702-0.5677 0.83292-0.71886 1.3127-0.32874 1.0423-0.32874 2.1593 0 3.2016 0.15116 0.4797 0.39525 0.92572 0.71886 1.3128 0.31659 0.37265 0.71152 0.67247 1.1571 0.87852 0.48818 0.22285 1.0207 0.3342 1.5582 0.32592v-9.377e-4zm0 3.6942c-1.0665 0.010862-2.1245-0.18957-3.1117-0.58948-0.92406-0.37491-1.7642-0.92697-2.4721-1.6245-0.70663-0.70505-1.2608-1.5455-1.6286-2.47-0.77913-2.0132-0.77913-4.2406 0-6.2537 0.73724-1.8647 2.222-3.3431 4.1006-4.0832 0.98899-0.39282 2.0463-0.58928 3.1117-0.57819 1.0691-0.010367 2.1301 0.1861 3.1232 0.57819 0.92666 0.36473 1.768 0.91378 2.4721 1.6132 0.70001 0.70799 1.2496 1.5479 1.6162 2.47 0.7789 2.0131 0.7789 4.2405 0 6.2537-0.7318 1.8664-2.212 3.349-4.0882 4.0945-0.99135 0.39922-2.0529 0.59956-3.1232 0.58948z" fill="#000"></path>
          <polygon points="56.513 4.2904 51.975 4.2904 51.975 0.86667 64.968 0.86667 64.968 4.2904 60.472 4.2904 60.472 15.6 56.511 15.6 56.511 4.2904" fill="#000"></polygon>
          <polygon points="70.166 0.86667 74.268 0.86667 74.268 12.154 81.427 12.154 81.427 15.6 70.166 15.6" fill="#000"></polygon>
          <polygon points="105.88 4.2904 101.35 4.2904 101.35 0.86667 114.34 0.86667 114.34 4.2904 109.85 4.2904 109.85 15.6 105.89 15.6 105.89 4.2904" fill="#000"></polygon>
          <polygon points="117.81 0.86667 128.6 0.86667 128.6 4.2471 121.79 4.2471 121.79 6.5226 127.38 6.5226 127.38 9.7011 121.79 9.7011 121.79 12.22 129.07 12.22 129.07 15.6 117.81 15.6" fill="#000"></polygon>
          <polygon points="86.299 15.6 89.379 9.7237 89.379 9.7247 84.025 0.86667 88.611 0.86667 91.547 6.1233 94.303 0.86667 98.752 0.86667 90.8 15.6" fill="#000"></polygon>
          <path d="m133.86 15.6v-1.5288h-0.45583v-0.20453h1.0963v0.20453h-0.45722v1.5288h-0.1833zm0.82313 0v-1.7333h0.2753l0.32718 1.2273c0.030434 0.11431 0.052569 0.19985 0.066403 0.25653 0.015909-0.063007 0.040119-0.15565 0.07332-0.27785l0.33133-1.206h0.24625v1.7333h-0.17638v-1.4507l-0.40188 1.4507h-0.16532l-0.3998-1.4756v1.4756h-0.17638z" fill="#000"></path>
        </g>
      </g>
    </g>
  </g>
</svg>
