<?xml version="1.0" encoding="utf-8"?>
<!DOCTYPE svg PUBLIC "-//W3C//DTD SVG 1.1//EN" "http://www.w3.org/Graphics/SVG/1.1/DTD/svg11.dtd">
<svg version="1.1" id="Layer_1" xmlns="http://www.w3.org/2000/svg" xmlns:xlink="http://www.w3.org/1999/xlink" x="0px" y="0px"
width="18px" height="18px" viewBox="66 66 18 18" enable-background="new 66 66 18 18" xml:space="preserve">
<path fill="#FFFFFF" d="M75.579,66c0,0.015,0.015,0.015,0,0.03h-0.803V66H75.579z"/>
<path fill="#FFFFFF" d="M74.851,66h0.699c2.146,0.151,3.794,1.136,4.914,2.878c0.541,0.872,0.83,1.856,0.815,2.879
c0.028,0.492-0.341,0.921-0.856,0.972c-0.474,0.05-0.921-0.252-1.038-0.707c-0.028-0.14-0.041-0.278-0.041-0.417
c-0.105-2.197-2.069-3.876-4.348-3.762c-1.937,0.101-3.557,1.464-3.874,3.308c-0.039,0.203-0.051,0.404-0.051,0.606
c0.026,0.518-0.396,0.946-0.936,0.972c-0.013,0-0.026,0-0.04,0c-0.527,0-0.961-0.404-0.961-0.909c0-0.025,0-0.051,0-0.088
c0-1.213,0.421-2.375,1.172-3.347c1.067-1.402,2.53-2.197,4.334-2.386H74.851z"/>
<path fill="#FFFFFF" d="M76.604,80.974h-3.584c-0.552,0-0.935-0.289-1.067-0.757c-0.13-0.518,0.211-1.048,0.752-1.173
c0.052-0.014,0.105-0.026,0.171-0.026h7.312c0.526,0,0.91,0.252,1.041,0.707c0.158,0.505-0.131,1.048-0.673,1.198
c-0.079,0.027-0.17,0.039-0.25,0.039c-1.055,0.012-2.12,0.012-3.174,0.012H76.604z"/>
<path fill="#FFFFFF" d="M76.604,78.208h-3.649c-0.475,0-0.897-0.314-1.003-0.769c-0.104-0.442,0.133-0.897,0.567-1.099
c0.131-0.064,0.277-0.102,0.422-0.102h7.339c0.565,0.025,0.999,0.469,0.987,1.011c-0.014,0.517-0.447,0.922-0.987,0.947
C79.042,78.208,77.815,78.208,76.604,78.208z"/>
<path fill="#FFFFFF" d="M76.604,75.445h-3.636c-0.568,0.012-1.028-0.431-1.042-0.973c0,0,0,0,0-0.013
c0-0.532,0.448-0.972,1.001-0.972c0.013,0,0.027,0,0.027,0h7.286c0.565,0,1.014,0.44,1.014,0.972c0,0.455-0.328,0.845-0.79,0.947
c-0.079,0.013-0.159,0.025-0.237,0.025L76.604,75.445z"/>
<path fill="#ED6C4F" d="M70.082,76.315c0.553,0,1,0.417,1,0.947l0,0c0,0.529-0.448,0.96-1,0.973c-0.554,0-1.001-0.443-1.001-0.961
C69.094,76.744,69.528,76.315,70.082,76.315z"/>
<path fill="#ED6C4F" d="M70.095,73.55c0.54,0,0.988,0.417,1.001,0.947c0,0.53-0.447,0.96-1.001,0.972
c-0.554,0-1.001-0.428-1.001-0.958C69.094,73.979,69.541,73.55,70.095,73.55L70.095,73.55z"/>
<path fill="#ED6C4F" d="M70.095,79.082c0.554,0,1.001,0.428,1.001,0.958S70.649,81,70.095,81c-0.554-0.013-1.001-0.442-1.001-0.973
C69.094,79.51,69.541,79.082,70.095,79.082L70.095,79.082z"/>
</svg>
