<svg width="425" height="533" viewBox="0 0 425 533" fill="none" xmlns="http://www.w3.org/2000/svg">
<g clip-path="url(#clip0_1_2)">
<rect width="425" height="533" fill="white"/>
<rect width="425" height="533" fill="#9482FC"/>
<rect x="184" width="38" height="164" fill="#9886FC"/>
<rect x="269.545" y="-14.0949" width="38" height="189.729" transform="rotate(20.5324 269.545 -14.0949)" fill="#9886FC"/>
<rect x="364.818" y="-27.4402" width="38" height="236.752" transform="rotate(34.7769 364.818 -27.4402)" fill="#9886FC"/>
<rect x="425.697" y="29.2054" width="38" height="236.752" transform="rotate(51.9918 425.697 29.2054)" fill="#9886FC"/>
<rect x="457.334" y="132" width="38" height="236.752" transform="rotate(74.6757 457.334 132)" fill="#9886FC"/>
<rect x="456.919" y="207.071" width="38" height="236.752" transform="rotate(90 456.919 207.071)" fill="#9886FC"/>
<rect x="221.497" y="182.56" width="38" height="236.752" transform="rotate(151.491 221.497 182.56)" fill="#9886FC"/>
<rect x="198.517" y="183.35" width="38" height="278.78" transform="rotate(134.486 198.517 183.35)" fill="#9886FC"/>
<rect x="183.64" y="190.875" width="38" height="278.78" transform="rotate(111.214 183.64 190.875)" fill="#9886FC"/>
<rect x="252.841" y="206.554" width="38" height="318.709" transform="rotate(90 252.841 206.554)" fill="#9784FF"/>
<circle cx="213" cy="170" r="69" fill="#9886FC"/>
<path d="M266.623 65.7242L263.612 77.4687L254.947 68.9886L266.623 65.7242Z" stroke="#ABEFF9" stroke-width="2"/>
<path d="M149.883 79.9983L144.285 83.2506L141.032 77.6517C140.545 76.8135 139.47 76.5287 138.632 77.0156C137.794 77.5025 137.51 78.5768 137.997 79.415L141.251 85.0139L135.653 88.2663C134.815 88.7532 134.531 89.8275 135.018 90.6657C135.505 91.504 136.579 91.7888 137.417 91.3018L143.015 88.0495L146.268 93.6484C146.755 94.4866 147.83 94.7714 148.668 94.2845C149.506 93.7976 149.79 92.7233 149.303 91.8851L146.05 86.2862L151.647 83.0338C152.485 82.5469 152.77 81.4727 152.283 80.6344C151.795 79.7962 150.721 79.5114 149.883 79.9983Z" fill="#FED9FB"/>
<path d="M312.599 119.057C308.718 120.334 306.38 115.149 304.76 119.394C304.122 121.319 301.506 123.07 298.873 122.41C297.992 122.182 296.923 121.753 296.709 121.059C296.448 120.286 298.077 119.455 298.912 119.913C299.34 120.159 299.802 120.439 300.329 120.563C302.62 121.022 301.622 117.136 305.46 115.983C307.01 115.471 308.816 115.884 309.837 116.475C310.217 116.59 311.764 117.675 312.225 117.182C312.742 116.593 313.101 115.922 313.476 115.286C314.332 113.914 316.625 113.099 318.295 113.571C318.689 113.678 319.013 113.841 319.363 113.979C319.489 114.027 319.668 113.983 319.769 113.884C319.79 113.863 319.805 113.841 319.815 113.82C320.108 113.223 320.598 112.718 321.608 112.744C323.595 112.947 322.112 115.137 320.661 115.734C319.58 116.172 318.548 116.131 317.574 115.719C317.251 115.595 316.949 115.313 316.52 115.39C315.472 115.433 315.514 118.146 312.599 119.057Z" fill="#FED9FB"/>
<path d="M91.7096 115.206C88.104 113.269 90.4148 107.97 86.1159 109.738C84.232 110.609 81.1323 109.922 79.8363 107.548C79.4068 106.749 79.0018 105.674 79.3786 105.037C79.7822 104.31 81.5179 104.918 81.7419 105.843C81.848 106.326 81.9516 106.856 82.2178 107.325C83.4324 109.311 85.6774 105.888 89.1601 107.88C90.6016 108.652 91.5203 110.252 91.7713 111.405C91.9442 111.761 92.181 113.64 92.8656 113.632C93.6619 113.6 94.4107 113.395 95.1451 113.227C96.7615 112.897 98.9369 114 99.7184 115.542C99.9069 115.903 100.005 116.252 100.138 116.602C100.188 116.727 100.344 116.827 100.487 116.832C100.517 116.832 100.544 116.828 100.566 116.82C101.216 116.62 101.93 116.625 102.598 117.378C103.798 118.964 101.14 119.405 99.7024 118.765C98.6362 118.282 97.9645 117.503 97.6103 116.508C97.4843 116.187 97.4911 115.772 97.141 115.513C96.3942 114.78 94.3811 116.694 91.7096 115.206Z" fill="#ABEFF9"/>
<circle cx="222" cy="115" r="7.5" stroke="#705BEA" stroke-width="3"/>
</g>
<defs>
<clipPath id="clip0_1_2">
<rect width="425" height="533" fill="white"/>
</clipPath>
</defs>
</svg>
