<svg width="12" height="12" viewBox="0 0 12 12" fill="none" xmlns="http://www.w3.org/2000/svg">
<g opacity="0.8">
<path d="M11.8346 0.165411C11.7823 0.112981 11.7203 0.0713813 11.6519 0.0429964C11.5835 0.0146114 11.5102 0 11.4362 0C11.3622 0 11.2889 0.0146114 11.2206 0.0429964C11.1522 0.0713813 11.0901 0.112981 11.0379 0.165411L5.9998 5.20348L0.961724 0.165411C0.856073 0.0597596 0.712779 0.000405279 0.563365 0.00040528C0.413951 0.000405281 0.270657 0.0597597 0.165006 0.165411C0.0593544 0.271063 7.04923e-09 0.414357 5.93602e-09 0.56377C4.8228e-09 0.713184 0.0593544 0.856478 0.165006 0.96213L5.20308 6.0002L0.165006 11.0383C0.0593544 11.1439 0 11.2872 0 11.4366C0 11.586 0.0593544 11.7293 0.165006 11.835C0.270657 11.9406 0.413951 12 0.563365 12C0.712779 12 0.856073 11.9406 0.961724 11.835L5.9998 6.79692L11.0379 11.835C11.1435 11.9406 11.2868 12 11.4362 12C11.5856 12 11.7289 11.9406 11.8346 11.835C11.9402 11.7293 11.9996 11.586 11.9996 11.4366C11.9996 11.2872 11.9402 11.1439 11.8346 11.0383L6.79652 6.0002L11.8346 0.96213C11.887 0.909882 11.9286 0.847798 11.957 0.779439C11.9854 0.711079 12 0.637789 12 0.56377C12 0.489752 11.9854 0.416462 11.957 0.348102C11.9286 0.279743 11.887 0.217659 11.8346 0.165411Z" fill="white"/>
</g>
</svg>
