<svg id="help" viewBox="0 0 16 16" fill="none" xmlns="http://www.w3.org/2000/svg">
<path fill-rule="evenodd" clip-rule="evenodd" d="M7.99996 15.3334C12.05 15.3334 15.3333 12.0501 15.3333 8.00002C15.3333 3.94993 12.05 0.666687 7.99996 0.666687C3.94987 0.666687 0.666626 3.94993 0.666626 8.00002C0.666626 12.0501 3.94987 15.3334 7.99996 15.3334ZM7.88538 9.7396C7.31246 9.7396 7.026 9.38153 7.026 8.91278C7.026 8.21617 7.37105 7.76695 8.17834 7.15497C8.19291 7.14388 8.20736 7.13289 8.2217 7.12198C8.77152 6.70372 9.15491 6.41207 9.15491 5.88544C9.15491 5.29299 8.60152 4.94794 7.98303 4.94794C7.47522 4.94794 7.08459 5.13674 6.7786 5.53387C6.55725 5.76174 6.38147 5.88544 6.08199 5.88544C5.5872 5.88544 5.33329 5.54038 5.33329 5.14325C5.33329 4.7396 5.56116 4.32945 5.91923 4.01695C6.401 3.60028 7.16923 3.33335 8.18485 3.33335C9.99475 3.33335 11.2643 4.22528 11.2643 5.76174C11.2643 6.88153 10.5937 7.4219 9.80595 7.96877C9.27209 8.3594 9.01819 8.58726 8.81637 9.0495L8.81583 9.05044C8.59474 9.4406 8.42531 9.7396 7.88538 9.7396ZM7.87235 12.513C7.24735 12.513 6.73303 12.1094 6.73303 11.4844C6.73303 10.8594 7.24735 10.4557 7.87235 10.4557C8.49735 10.4557 9.00517 10.8594 9.00517 11.4844C9.00517 12.1094 8.49735 12.513 7.87235 12.513Z" fill="currentColor"/>
</svg>
